<?xml version="1.0" standalone="no"?>
<!DOCTYPE svg PUBLIC "-//W3C//DTD SVG 20010904//EN"
 "http://www.w3.org/TR/2001/REC-SVG-20010904/DTD/svg10.dtd">
<svg version="1.0" xmlns="http://www.w3.org/2000/svg"
 width="512.000000pt" height="512.000000pt" viewBox="0 0 512.000000 512.000000"
 preserveAspectRatio="xMidYMid meet">
<metadata>
Created by potrace 1.14, written by Peter Selinger 2001-2017
</metadata>
<g transform="translate(0.000000,512.000000) scale(0.100000,-0.100000)"
fill="#000000" stroke="none">
<path d="M3085 5094 c-16 -13 -37 -15 -105 -10 -82 5 -86 4 -112 -21 -27 -26
-32 -27 -156 -27 -120 -1 -130 -3 -187 -30 -78 -38 -173 -133 -211 -211 -28
-58 -29 -66 -35 -260 -8 -225 -20 -283 -84 -390 -149 -249 -329 -264 -545 -46
-127 128 -246 317 -299 476 l-26 80 -83 -86 -82 -86 298 -309 c164 -170 353
-365 419 -434 l121 -125 -142 -5 -141 -5 0 -30 c0 -22 5 -31 20 -33 51 -8 103
-34 114 -58 15 -33 16 -778 1 -821 -12 -33 -45 -53 -88 -53 -38 0 -54 -13 -50
-41 l3 -24 454 -3 c250 -1 458 1 462 5 4 5 10 81 14 171 l7 162 -24 0 c-21 0
-31 -13 -63 -76 -54 -106 -90 -153 -131 -170 -44 -19 -250 -22 -282 -5 -41 22
-46 47 -50 244 l-4 187 77 0 c49 0 89 -6 109 -15 36 -17 68 -67 85 -132 10
-36 16 -43 36 -43 l25 0 0 148 0 147 108 -110 c282 -289 622 -644 622 -649 0
-3 -50 -6 -111 -6 l-110 0 3 -27 c2 -20 11 -29 41 -39 55 -19 95 -51 116 -92
17 -33 83 -206 280 -732 l66 -175 73 0 73 0 84 218 c46 121 86 221 88 223 2 3
170 -167 373 -377 202 -210 370 -376 372 -369 3 7 -1 36 -7 65 -10 43 -9 65 4
120 20 88 19 123 -5 168 -23 43 -26 111 -5 147 20 36 18 84 -6 132 -24 47 -20
73 18 118 25 30 26 35 14 64 -8 17 -15 56 -16 86 -9 166 -19 247 -31 265 -20
27 -17 65 7 120 26 59 20 83 -32 140 -40 43 -42 48 -48 128 -6 77 -9 86 -36
110 -29 24 -30 29 -34 117 -3 91 -3 92 -32 102 -26 9 -29 14 -29 56 0 36 -6
52 -27 75 -25 26 -28 34 -25 91 4 63 3 64 -32 91 -23 18 -40 42 -51 75 -21 63
-34 73 -111 81 -59 6 -69 10 -114 53 -36 33 -57 46 -79 46 -50 0 -80 17 -98
57 -16 34 -23 39 -70 47 -29 5 -53 13 -53 17 0 10 68 69 80 69 5 0 12 -4 15
-10 3 -5 41 -26 83 -47 74 -36 81 -37 187 -38 105 0 112 1 146 28 37 28 86 36
106 16 6 -6 26 -9 44 -7 27 2 37 10 50 36 20 44 36 53 84 46 49 -7 104 26 118
71 16 50 45 73 106 85 143 28 162 44 117 103 -15 19 -33 55 -42 81 -13 37 -24
51 -55 66 -42 22 -61 46 -78 101 -13 41 -36 65 -66 71 -19 3 -34 25 -55 83 -6
19 -27 41 -54 57 -24 14 -59 48 -77 75 -18 26 -37 51 -43 56 -6 4 -34 4 -63 1
-45 -5 -52 -4 -57 14 -9 27 -30 34 -63 21 -24 -9 -30 -7 -45 13 -63 84 -50 78
-151 75 -81 -2 -98 1 -141 23 -82 41 -85 71 -16 154 30 36 40 57 40 84 0 25 8
44 26 63 40 42 27 60 -40 57 -48 -2 -58 1 -90 30 -40 35 -75 40 -116 17 -33
-19 -74 -19 -90 0 -7 8 -27 15 -45 15 -18 0 -49 -7 -68 -15 -20 -8 -52 -15
-72 -15 -20 0 -52 7 -72 15 -46 19 -102 19 -128 -1z m-741 -1885 c-34 -58 -66
-74 -160 -78 l-84 -3 0 188 0 189 131 -132 131 -132 -18 -32z m1354 -1366 c3
-12 -69 -220 -85 -246 -3 -5 -38 78 -78 185 -39 106 -88 235 -108 285 -21 51
-37 96 -37 99 0 11 305 -308 308 -323z"/>
<path d="M497 3603 c-16 -15 -6 -55 14 -60 55 -15 104 -51 126 -93 23 -43 23
-48 23 -374 0 -194 -4 -346 -10 -368 -16 -54 -40 -79 -95 -93 -46 -11 -50 -15
-53 -44 l-3 -31 206 0 206 0 -3 31 c-3 27 -10 33 -57 52 -30 12 -63 33 -73 47
-30 41 -39 139 -36 419 l3 264 291 -404 291 -404 67 -3 66 -3 0 438 c0 255 4
452 10 472 13 45 45 79 84 86 62 13 66 15 66 46 l0 29 -206 0 -205 0 3 -32 c3
-28 8 -33 52 -48 60 -20 93 -56 101 -112 3 -24 5 -149 3 -280 l-3 -236 -131
181 c-72 100 -184 256 -249 347 -65 91 -124 168 -129 172 -14 10 -350 10 -359
1z"/>
<path d="M1940 2371 c0 -26 4 -30 38 -36 21 -3 53 -15 70 -25 l32 -20 0 -425
0 -425 -22 -14 c-13 -8 -44 -18 -70 -21 -45 -7 -48 -9 -48 -36 l0 -29 265 0
265 0 0 29 c0 27 -4 30 -42 36 -26 5 -53 18 -70 35 l-28 28 0 177 c0 163 1
176 18 173 23 -4 161 -191 259 -349 l78 -128 190 0 190 -1 1 30 c1 25 -3 30
-21 30 -36 0 -101 42 -140 89 -58 71 -265 358 -265 367 0 5 20 17 44 27 108
45 174 129 183 236 11 120 -50 213 -168 256 -49 17 -90 19 -406 23 l-353 3 0
-30z m578 -74 c55 -36 72 -78 72 -178 0 -150 -57 -217 -190 -227 l-70 -5 0
223 0 223 75 -5 c58 -4 83 -11 113 -31z"/>
<path d="M369 1577 c-24 -13 -51 -35 -59 -50 -13 -24 -13 -28 8 -50 21 -22 26
-23 62 -13 40 10 47 20 31 45 -7 11 -13 9 -30 -8 -23 -23 -46 -27 -56 -11 -10
17 16 41 70 66 87 41 129 26 79 -28 l-29 -30 36 17 c31 15 35 21 31 44 -3 14
-10 29 -16 33 -22 15 -84 7 -127 -15z"/>
<path d="M448 1476 c-15 -6 -41 -25 -58 -41 -59 -57 -25 -108 58 -86 46 13
100 54 112 85 18 47 -48 71 -112 42z m97 -16 c10 -16 -13 -39 -67 -66 -105
-53 -136 -12 -33 43 63 34 90 40 100 23z"/>
<path d="M577 1397 c-7 -19 -145 -99 -157 -92 -18 11 -11 -22 11 -49 25 -32
64 -34 119 -6 42 21 70 54 70 82 0 27 -36 82 -43 65z m23 -57 c0 -41 -144
-110 -157 -75 -3 10 131 94 150 95 4 0 7 -9 7 -20z"/>
<path d="M643 1293 c-7 -2 -13 -11 -13 -18 0 -7 -12 -18 -27 -23 -16 -6 -22
-11 -15 -11 25 -2 82 28 82 43 0 16 -6 18 -27 9z"/>
<path d="M650 1243 c-33 -12 -60 -47 -60 -78 0 -35 -15 -55 -42 -55 -22 0 -24
32 -3 50 28 23 15 31 -14 9 -26 -19 -28 -24 -19 -50 8 -23 16 -29 40 -29 40 0
88 48 88 89 0 20 7 34 20 41 28 15 39 -14 15 -40 -20 -23 -9 -26 18 -6 21 16
22 40 1 60 -16 17 -20 18 -44 9z"/>
<path d="M740 1138 c0 -20 -128 -121 -141 -112 -15 9 -10 -23 6 -36 9 -7 15
-8 15 -2 0 12 132 112 149 112 6 0 11 -6 11 -14 0 -18 -113 -116 -134 -116
-20 0 -21 -14 -1 -30 12 -10 15 -10 15 3 0 13 80 87 94 87 3 0 -10 -29 -30
-65 -20 -36 -34 -69 -32 -74 1 -5 36 17 77 50 40 32 80 59 88 59 13 0 13 3 3
15 -16 19 -30 19 -30 1 0 -8 -18 -29 -40 -46 -22 -17 -40 -29 -40 -26 0 4 14
30 30 59 17 30 30 58 30 63 0 5 -16 27 -35 49 -24 28 -34 35 -35 23z"/>
<path d="M890 959 c0 -21 -112 -129 -135 -129 -17 0 -16 -2 6 -26 16 -17 25
-21 28 -12 2 7 15 25 29 40 19 21 29 25 39 17 7 -6 13 -16 13 -21 0 -12 -52
-54 -62 -50 -15 4 -8 -15 12 -33 17 -16 20 -16 20 -2 0 8 29 40 64 71 61 54
86 67 86 45 0 -17 -113 -139 -129 -139 -11 0 -10 -5 4 -20 18 -20 41 -28 30
-11 -7 12 103 131 121 131 23 0 16 14 -24 53 -40 40 -52 45 -52 24 0 -7 -12
-24 -27 -37 -25 -22 -27 -22 -40 -4 -11 15 -10 21 9 41 12 13 27 23 35 23 19
0 16 14 -7 35 -16 14 -20 15 -20 4z"/>
<path d="M4181 924 c-33 -27 -40 -44 -18 -44 18 0 138 -110 131 -121 -11 -18
13 -8 34 14 27 29 28 60 2 103 -17 27 -88 74 -112 74 -4 0 -20 -12 -37 -26z
m111 -54 c46 -45 58 -75 30 -75 -14 0 -132 103 -132 116 0 5 12 9 26 9 19 0
42 -15 76 -50z"/>
<path d="M4366 893 c-7 -7 23 -43 36 -43 4 0 8 7 8 15 0 16 -34 38 -44 28z"/>
<path d="M4090 835 c-21 -23 -22 -25 -5 -25 20 0 136 -120 128 -132 -15 -25
-103 19 -103 52 0 23 -33 60 -54 60 -8 0 -26 -10 -41 -22 l-25 -23 65 -69 c36
-38 63 -76 61 -83 -7 -18 4 -16 25 3 17 15 16 18 -17 46 -43 38 -37 48 11 19
20 -11 40 -21 45 -21 5 0 32 21 59 48 l51 47 -20 24 -20 23 6 -30 c10 -50 -13
-49 -67 4 -26 26 -54 60 -62 76 l-14 28 -23 -25z m-23 -87 c13 -12 23 -31 23
-42 0 -18 -3 -17 -30 9 -28 26 -40 55 -23 55 4 0 17 -10 30 -22z"/>
<path d="M1009 781 c-26 -27 -30 -36 -27 -77 2 -35 -1 -49 -14 -57 -27 -18
-41 3 -28 38 14 37 7 42 -14 10 -16 -24 -16 -28 -1 -51 20 -31 36 -30 75 3 29
24 32 31 27 67 -6 45 6 76 30 76 12 0 14 -7 10 -37 l-6 -38 19 25 c16 21 17
28 6 45 -20 31 -43 29 -77 -4z"/>
<path d="M1140 717 c0 -15 -82 -125 -106 -144 -14 -10 -13 -13 5 -22 24 -13
34 -14 27 -3 -3 5 7 23 22 41 24 29 29 31 46 18 17 -13 16 -15 -16 -50 -32
-34 -34 -38 -18 -52 19 -17 34 -20 25 -5 -6 10 94 150 108 150 33 0 -4 -80
-70 -152 l-25 -26 38 -26 c40 -27 48 -26 65 5 9 18 8 19 -9 8 -11 -7 -27 -9
-37 -6 -16 7 -16 9 2 39 21 37 43 47 43 21 0 -15 3 -14 20 7 23 30 26 48 5 30
-24 -20 -29 -4 -9 30 21 35 50 36 47 2 -3 -27 3 -28 17 -3 9 17 2 25 -55 65
-51 35 -65 42 -65 28 -1 -9 -9 -27 -20 -40 -16 -19 -23 -21 -40 -12 l-21 11
21 30 c12 16 29 29 37 29 14 0 14 3 -2 20 -21 23 -35 26 -35 7z"/>
<path d="M3929 699 c-28 -28 -11 -85 42 -137 83 -81 144 -28 84 73 -39 68 -94
96 -126 64z m46 -15 c30 -20 85 -101 85 -126 0 -30 -25 -20 -69 27 -43 46 -65
90 -55 106 7 12 11 12 39 -7z"/>
<path d="M3867 653 c-11 -10 -8 -25 3 -18 8 5 60 -82 60 -102 0 -4 -22 15 -50
42 -27 27 -53 46 -56 42 -4 -4 3 -30 16 -57 13 -27 25 -48 28 -46 2 2 -2 15
-8 28 -7 13 12 0 44 -31 30 -30 58 -52 61 -49 3 3 -10 40 -30 83 -19 43 -35
86 -35 96 0 19 -20 26 -33 12z"/>
<path d="M3760 577 c-13 -10 -4 -23 62 -86 43 -41 81 -71 84 -68 3 3 -4 22
-15 44 -11 21 -20 34 -21 28 0 -14 -80 67 -80 82 0 16 -10 16 -30 0z"/>
<path d="M1319 500 c-35 -38 -69 -70 -77 -70 -16 0 -11 -22 6 -28 7 -2 12 3
12 11 0 7 8 21 19 31 15 14 20 14 30 3 12 -15 5 -47 -13 -59 -7 -5 -4 -13 9
-22 25 -19 36 -20 30 -3 -3 6 10 54 29 105 18 51 30 95 26 97 -5 3 -37 -26
-71 -65z m19 -21 c-7 -21 -14 -27 -21 -20 -7 7 -5 17 8 31 24 27 26 25 13 -11z"/>
<path d="M3627 503 c-32 -20 -54 -39 -49 -42 5 -3 17 -20 26 -38 15 -31 15
-33 -4 -43 -16 -9 -22 -6 -35 19 -8 17 -15 37 -15 45 0 12 -16 8 -75 -17 -65
-27 -74 -34 -69 -51 10 -34 23 -42 21 -13 -1 14 3 25 8 25 14 -2 77 -149 71
-165 -7 -16 2 -16 33 1 17 10 20 14 9 18 -8 4 -29 41 -47 83 -31 74 -34 102
-9 77 18 -18 28 -15 21 6 -11 33 14 -2 46 -62 17 -32 31 -67 31 -77 0 -11 4
-19 8 -19 13 0 48 29 36 30 -13 0 -46 68 -39 81 18 29 74 -33 61 -67 -7 -17 2
-17 33 0 20 11 22 15 9 22 -23 13 -90 156 -79 167 5 5 14 6 20 3 14 -9 84
-135 84 -152 0 -18 2 -18 48 8 44 25 44 24 23 58 l-15 25 5 -24 c5 -24 -8 -51
-25 -51 -5 0 -18 18 -29 40 -15 29 -17 40 -7 40 7 0 19 -6 26 -12 7 -7 4 5 -6
26 -15 33 -19 36 -21 18 -5 -31 -19 -27 -38 9 -19 38 -7 57 26 39 20 -11 21
-10 10 9 -14 28 -24 26 -93 -16z"/>
<path d="M1426 517 c3 -8 -7 -49 -20 -93 -42 -129 -36 -133 48 -34 54 64 86
86 86 60 0 -19 -70 -150 -80 -150 -24 0 -7 -18 33 -35 23 -9 54 -23 69 -31 35
-19 41 -18 33 5 -3 10 5 42 19 72 l24 54 1 -82 c1 -46 4 -83 9 -83 4 0 22 37
41 81 19 44 40 83 47 86 20 7 17 20 -6 26 -15 4 -20 0 -20 -16 0 -12 -9 -40
-19 -62 l-19 -40 -1 71 c-1 56 -5 73 -17 78 -23 9 -27 8 -21 -9 8 -20 -53
-165 -69 -165 -17 0 -17 5 -3 33 12 21 11 21 -8 4 -24 -21 -53 -22 -53 -2 0 9
7 30 16 47 15 29 18 30 29 15 11 -15 13 -14 23 7 9 21 8 23 -9 19 -23 -6 -23
-3 -2 41 13 28 19 33 30 25 7 -6 13 -18 13 -26 0 -8 5 -11 10 -8 20 13 9 35
-27 54 -51 25 -87 36 -79 23 5 -9 -74 -116 -81 -109 -7 8 30 113 44 124 13 10
12 13 -6 22 -27 15 -41 14 -35 -2z"/>
<path d="M3330 368 c-14 -6 -20 -12 -13 -15 12 -4 39 -71 31 -78 -1 -2 -12 -5
-23 -7 -16 -2 -22 5 -30 40 -8 37 -12 42 -30 37 -11 -4 -60 -18 -110 -31 -112
-31 -124 -35 -107 -41 8 -3 12 -26 12 -66 l-1 -62 -26 63 c-14 34 -29 62 -34
62 -5 0 -9 -21 -9 -47 0 -32 3 -43 9 -34 7 11 11 8 16 -10 5 -13 17 -44 29
-69 l21 -45 5 105 c3 62 9 104 15 103 16 -2 54 -156 42 -171 -7 -8 -5 -12 6
-12 29 0 48 12 38 24 -14 16 -51 168 -44 179 3 5 12 -3 19 -19 l12 -29 1 28
c2 49 18 29 43 -55 19 -62 22 -87 14 -97 -9 -12 -6 -13 19 -7 36 9 43 15 28
24 -15 9 -58 160 -49 170 4 4 15 -2 23 -13 15 -20 15 -20 10 3 -3 12 -1 22 3
22 13 0 63 -158 54 -171 -5 -9 0 -10 17 -6 13 4 28 7 33 7 5 0 2 8 -6 18 -8 9
-20 31 -26 49 -10 31 -3 43 28 43 12 0 33 -68 26 -86 -5 -12 -1 -14 17 -9 26
8 47 25 30 25 -10 0 -59 125 -65 166 -3 19 -6 20 -28 12z"/>
<path d="M1868 312 c-9 -17 -14 -41 -11 -65 4 -31 3 -36 -11 -31 -12 5 -13 10
-5 26 6 11 8 22 5 25 -2 3 -16 -18 -30 -45 -14 -28 -31 -54 -37 -58 -8 -4 -7
-9 2 -15 21 -13 29 -11 23 5 -3 8 -1 24 6 35 9 17 15 19 30 11 18 -10 17 -48
-2 -61 -12 -7 139 -52 151 -45 5 3 11 15 14 27 5 20 5 20 -13 4 -21 -19 -55
-13 -48 8 3 6 13 45 23 85 11 39 23 72 28 72 4 0 5 5 2 10 -12 19 -45 11 -45
-10 0 -30 -31 -153 -41 -165 -6 -5 -13 -5 -20 2 -7 7 -7 39 -1 104 5 52 6 97
3 101 -4 4 -14 -5 -23 -20z"/>
<path d="M2048 277 c10 -11 -12 -129 -32 -178 -5 -12 3 -18 38 -26 45 -10 45
-10 56 20 15 44 13 45 -14 12 -39 -48 -49 -24 -30 71 9 43 20 84 25 90 6 8 2
14 -13 18 -34 9 -42 7 -30 -7z"/>
<path d="M2154 277 c-3 -9 -3 -24 0 -33 3 -8 1 -25 -6 -37 -10 -20 -10 -21 5
-9 20 17 32 71 18 85 -7 7 -12 5 -17 -6z"/>
<path d="M2196 238 c-24 -34 -20 -75 9 -100 28 -24 33 -66 9 -75 -19 -7 -33
12 -35 47 0 23 -1 23 -9 5 -10 -24 -13 -71 -3 -62 3 4 12 2 19 -4 21 -17 51
-1 63 33 16 44 14 53 -15 87 -27 33 -30 76 -4 76 9 0 17 -13 20 -35 4 -27 7
-31 13 -17 12 30 8 54 -9 61 -28 11 -42 7 -58 -16z"/>
<path d="M2900 250 c0 -5 4 -10 9 -10 5 0 24 -40 42 -90 19 -49 37 -90 42 -90
4 0 7 24 7 53 0 32 -4 47 -9 39 -5 -9 -14 6 -27 47 -16 51 -23 61 -41 61 -13
0 -23 -4 -23 -10z"/>
<path d="M2752 243 c-40 -4 -42 -5 -35 -31 13 -51 9 -67 -16 -70 -23 -4 -24
-2 -19 48 4 42 3 50 -9 46 -8 -4 -22 -6 -30 -6 -11 0 -13 -4 -6 -12 17 -22 26
-167 12 -185 -11 -13 -9 -14 17 -11 20 2 28 8 25 18 -2 8 -6 32 -8 53 -5 35
-4 37 22 37 26 0 27 -1 23 -50 -3 -49 -3 -50 26 -50 21 0 26 3 18 13 -11 14
-28 187 -18 187 4 0 11 -10 16 -22 l9 -23 0 23 c1 12 7 22 15 22 10 0 16 -23
21 -85 4 -46 4 -89 0 -95 -4 -6 6 -10 26 -10 24 0 29 3 21 13 -11 14 -35 178
-26 186 3 3 14 -5 24 -19 l18 -24 -5 27 c-6 29 -10 30 -121 20z"/>
<path d="M2327 229 c13 -13 6 -158 -8 -173 -16 -17 -10 -26 17 -26 20 0 24 4
19 19 -3 10 -2 28 3 41 8 20 9 19 20 -18 8 -25 19 -42 32 -45 11 -3 20 -4 20
-4 0 1 -9 25 -20 54 -17 45 -17 53 -5 63 18 15 20 71 3 88 -7 7 -30 12 -52 12
-29 0 -37 -3 -29 -11z m61 -49 c-5 -49 -28 -51 -28 -2 0 21 3 42 7 46 13 12
24 -12 21 -44z"/>
<path d="M2548 228 c-38 -29 -49 -112 -24 -173 12 -28 20 -35 43 -35 40 0 49
10 56 58 5 39 3 42 -18 42 -21 0 -22 -3 -17 -46 4 -41 3 -46 -14 -42 -21 4
-32 35 -33 101 -2 82 39 120 58 55 l9 -33 1 38 c1 20 -3 37 -8 37 -5 0 -15 2
-23 5 -7 3 -21 0 -30 -7z"/>
<path d="M2458 144 c2 -53 -1 -91 -7 -97 -19 -19 -12 -27 21 -27 25 0 29 3 20
12 -14 14 -15 92 -3 156 8 39 7 42 -13 42 -20 0 -21 -4 -18 -86z"/>
<path d="M1694 205 c-3 -8 -3 -19 1 -25 4 -6 -1 -20 -11 -31 -9 -10 -14 -19
-11 -19 15 0 47 46 47 67 0 25 -17 31 -26 8z"/>
</g>
</svg>
